<svg xmlns="http://www.w3.org/2000/svg" xmlns:xlink="http://www.w3.org/1999/xlink" width="500" zoomAndPan="magnify" viewBox="0 0 375 374.999991" height="500" preserveAspectRatio="xMidYMid meet" version="1.0"><defs><g/><clipPath id="576fe89140"><path d="M 233.738281 67.128906 L 353.738281 67.128906 L 353.738281 190.878906 L 233.738281 190.878906 Z M 233.738281 67.128906 " clip-rule="nonzero"/></clipPath></defs><path fill="#d9d9d9" d="M 340.472656 146.003906 C 340.472656 145.742188 340.367188 145.492188 340.183594 145.308594 L 279.742188 84.9375 C 279.355469 84.554688 278.734375 84.554688 278.351562 84.9375 C 277.355469 85.929688 276.035156 86.476562 274.625 86.476562 C 273.214844 86.476562 271.894531 85.929688 270.898438 84.9375 C 270.515625 84.550781 269.894531 84.554688 269.507812 84.9375 L 246.660156 107.757812 C 246.476562 107.941406 246.371094 108.191406 246.371094 108.453125 C 246.371094 108.714844 246.476562 108.964844 246.660156 109.148438 C 248.484375 110.972656 248.722656 113.820312 247.222656 115.917969 C 246.945312 116.308594 246.988281 116.84375 247.328125 117.183594 L 297.175781 166.984375 L 307.898438 177.6875 C 308.238281 178.023438 308.773438 178.066406 309.160156 177.792969 C 311.269531 176.304688 314.121094 176.539062 315.945312 178.355469 C 316.136719 178.546875 316.386719 178.640625 316.636719 178.640625 C 316.890625 178.640625 317.140625 178.542969 317.332031 178.355469 L 340.183594 155.535156 C 340.367188 155.351562 340.46875 155.101562 340.46875 154.839844 C 340.46875 154.578125 340.367188 154.328125 340.183594 154.144531 C 338.128906 152.089844 338.128906 148.753906 340.183594 146.703125 C 340.367188 146.515625 340.472656 146.265625 340.472656 146.003906 Z M 310.558594 133.109375 C 310.558594 137.320312 308.917969 141.273438 305.941406 144.246094 C 305.941406 144.246094 305.941406 144.246094 305.941406 144.25 C 302.96875 147.226562 299.011719 148.867188 294.800781 148.867188 C 290.59375 148.867188 286.632812 147.226562 283.65625 144.246094 C 277.519531 138.109375 277.519531 128.113281 283.65625 121.964844 C 286.730469 118.894531 290.769531 117.359375 294.800781 117.359375 C 298.835938 117.359375 302.871094 118.894531 305.941406 121.964844 C 308.917969 124.941406 310.558594 128.898438 310.558594 133.109375 Z M 310.558594 133.109375 " fill-opacity="1" fill-rule="nonzero"/><g clip-path="url(#576fe89140)"><path fill="#d9d9d9" d="M 353.710938 85.085938 C 353.582031 84.859375 353.367188 84.695312 353.117188 84.625 L 308.785156 72.4375 L 307.460938 67.9375 C 307.308594 67.414062 306.765625 67.117188 306.242188 67.269531 L 278.925781 75.277344 L 275.324219 71.679688 C 274.941406 71.292969 274.316406 71.292969 273.933594 71.679688 L 266.777344 78.832031 L 255.152344 82.238281 C 254.902344 82.3125 254.691406 82.480469 254.566406 82.710938 C 254.441406 82.9375 254.414062 83.207031 254.484375 83.460938 L 256.21875 89.371094 L 234.128906 111.445312 C 233.945312 111.628906 233.839844 111.878906 233.839844 112.140625 C 233.839844 112.402344 233.945312 112.652344 234.128906 112.835938 L 275.136719 153.796875 L 280.078125 170.636719 C 280.078125 170.636719 280.078125 170.636719 280.082031 170.640625 L 283.90625 183.640625 C 284.03125 184.070312 284.425781 184.347656 284.851562 184.347656 C 284.941406 184.347656 285.035156 184.335938 285.128906 184.308594 L 301.011719 179.644531 L 312.253906 190.875 C 312.445312 191.066406 312.699219 191.164062 312.949219 191.164062 C 313.203125 191.164062 313.453125 191.066406 313.644531 190.875 L 353.453125 151.121094 C 353.636719 150.933594 353.742188 150.683594 353.742188 150.421875 C 353.742188 150.160156 353.636719 149.910156 353.453125 149.726562 L 339.921875 136.210938 L 353.804688 85.835938 C 353.871094 85.582031 353.839844 85.3125 353.710938 85.085938 Z M 305.851562 69.433594 L 319.453125 115.757812 L 313.636719 109.949219 L 305.109375 80.9375 C 304.957031 80.417969 304.414062 80.121094 303.890625 80.273438 C 302.625 80.640625 301.296875 80.496094 300.140625 79.867188 C 298.984375 79.234375 298.140625 78.195312 297.773438 76.9375 C 297.703125 76.6875 297.53125 76.476562 297.300781 76.347656 C 297.074219 76.222656 296.800781 76.195312 296.554688 76.269531 L 283.6875 80.042969 L 280.511719 76.863281 Z M 256.652344 83.851562 L 263.863281 81.738281 L 257.804688 87.789062 Z M 285.515625 182.140625 L 281.96875 170.085938 C 281.96875 170.085938 281.96875 170.082031 281.96875 170.082031 L 278.035156 156.695312 L 299.421875 178.058594 Z M 312.949219 188.789062 L 236.214844 112.140625 L 267.960938 80.425781 C 267.96875 80.417969 267.980469 80.414062 267.988281 80.40625 L 274.628906 73.765625 L 282.707031 81.84375 C 282.71875 81.851562 282.730469 81.855469 282.738281 81.863281 L 351.367188 150.421875 Z M 338.519531 133.902344 L 338.324219 134.613281 L 335.277344 131.570312 L 345.265625 95.328125 C 345.335938 95.074219 345.300781 94.804688 345.171875 94.578125 C 345.042969 94.351562 344.828125 94.183594 344.578125 94.117188 C 343.363281 93.78125 342.347656 92.992188 341.722656 91.894531 C 341.097656 90.796875 340.9375 89.523438 341.273438 88.3125 C 341.339844 88.0625 341.308594 87.792969 341.179688 87.566406 C 341.050781 87.339844 340.835938 87.171875 340.585938 87.101562 L 312.140625 79.273438 C 311.648438 79.140625 311.148438 79.410156 310.96875 79.878906 L 309.433594 74.652344 L 351.644531 86.257812 Z M 338.519531 133.902344 " fill-opacity="1" fill-rule="nonzero"/></g><path fill="#d9d9d9" d="M 301.203125 125.320312 L 299.472656 127.082031 C 298.785156 126.652344 297.992188 126.410156 297.164062 126.410156 C 296.023438 126.410156 294.910156 126.871094 294.109375 127.671875 C 293.300781 128.480469 292.835938 129.597656 292.835938 130.738281 C 292.835938 131.878906 293.300781 133 294.109375 133.804688 C 294.550781 134.246094 294.804688 134.855469 294.804688 135.46875 C 294.804688 136.09375 294.554688 136.691406 294.105469 137.148438 C 293.226562 138.039062 291.640625 138.039062 290.761719 137.148438 C 290.316406 136.699219 290.074219 136.101562 290.074219 135.46875 C 290.074219 134.847656 290.324219 134.242188 290.757812 133.804688 C 291.144531 133.421875 291.144531 132.800781 290.757812 132.414062 C 290.375 132.03125 289.753906 132.03125 289.367188 132.414062 C 288.566406 133.214844 288.105469 134.328125 288.105469 135.46875 C 288.105469 136.289062 288.339844 137.070312 288.761719 137.75 L 287.003906 139.515625 C 286.621094 139.902344 286.625 140.523438 287.007812 140.910156 C 287.199219 141.101562 287.453125 141.195312 287.703125 141.195312 C 287.957031 141.195312 288.207031 141.097656 288.398438 140.90625 L 290.152344 139.148438 C 290.828125 139.570312 291.609375 139.808594 292.433594 139.808594 C 293.601562 139.808594 294.695312 139.355469 295.507812 138.53125 C 296.324219 137.699219 296.773438 136.613281 296.773438 135.472656 C 296.773438 134.335938 296.308594 133.222656 295.5 132.414062 C 295.058594 131.972656 294.804688 131.363281 294.804688 130.742188 C 294.804688 130.117188 295.058594 129.507812 295.5 129.066406 C 296.375 128.1875 297.929688 128.167969 298.863281 129.085938 C 299.761719 130.007812 299.753906 131.503906 298.839844 132.414062 C 298.457031 132.800781 298.457031 133.421875 298.839844 133.804688 C 299.226562 134.191406 299.847656 134.191406 300.230469 133.804688 C 301.65625 132.378906 301.867188 130.183594 300.851562 128.496094 L 302.609375 126.695312 C 302.988281 126.308594 302.984375 125.6875 302.59375 125.304688 C 302.207031 124.925781 301.585938 124.929688 301.203125 125.320312 Z M 301.203125 125.320312 " fill-opacity="1" fill-rule="nonzero"/><g fill="#d9d9d9" fill-opacity="1"><g transform="translate(227.668804, 296.13671)"><g><path d="M 74.234375 -63.3125 L 81.015625 -48.796875 L 80.046875 -7.734375 L 71.46875 -0.140625 L 53.78125 0.140625 L 52.953125 12.859375 L 27.515625 14.796875 L 27.921875 0.140625 L 8.015625 0.421875 L 2.765625 -10.5 L 5.390625 -37.1875 L 29.171875 -37.1875 L 31.109375 -24.75 L 52.265625 -25.296875 L 52.953125 -42.578125 L 10.234375 -47.5625 L 4.015625 -54.609375 L 4.703125 -100.921875 L 10.09375 -107.421875 L 27.921875 -108.390625 L 29.453125 -122.625 L 55.296875 -124.5625 L 53.921875 -109.90625 L 60.828125 -110.328125 L 78.671875 -105.34375 L 79.90625 -78.671875 L 74.796875 -74.375 L 55.4375 -73.265625 L 51.984375 -84.609375 L 33.59375 -83.09375 L 32.078125 -67.1875 Z M 74.234375 -63.3125 "/></g></g></g><g fill="#d9d9d9" fill-opacity="1"><g transform="translate(157.206117, 194.132668)"><g><path d="M 48.09375 -94.03125 L 74.890625 -95.234375 L 71.421875 -0.953125 L 50.015625 -0.125 L 28 -46.78125 L 26.328125 -2.390625 L 2.390625 0 L 3.109375 -95.109375 L 28.953125 -95.109375 L 47.859375 -55.15625 Z M 48.09375 -94.03125 "/></g></g></g><g fill="#d9d9d9" fill-opacity="1"><g transform="translate(74.674918, 183.293138)"><g><path d="M 62.640625 -78.625 L 29.640625 -79.15625 L 29.640625 -65.640625 L 50.6875 -64.46875 L 50.6875 -41.84375 L 29.5 -43.15625 L 29.25 -1.296875 L 2.59375 0 L 2.59375 -104.109375 L 63.296875 -102.15625 Z M 62.640625 -78.625 "/></g></g></g><g fill="#d9d9d9" fill-opacity="1"><g transform="translate(14.53633, 303.844811)"><g><path d="M 83.640625 -107.453125 L 82.625 -10.328125 L 77.328125 -3.4375 L 82.34375 4.015625 L 59.671875 14.484375 L 44.046875 -0.4375 L 13.046875 0 L 3.59375 -5.453125 L 2.875 -106.875 L 7.3125 -114.046875 L 76.890625 -114.765625 Z M 53.359375 -88.65625 L 32.84375 -87.21875 L 33.71875 -24.390625 L 53.21875 -23.09375 Z M 53.359375 -88.65625 "/></g></g></g><g fill="#d9d9d9" fill-opacity="1"><g transform="translate(130.835151, 188.324042)"><g><path d="M 2.609375 -79.09375 L 24.359375 -79.796875 L 21.65625 -2 L 2 0.09375 Z M 2.609375 -79.09375 "/></g></g></g><g fill="#d9d9d9" fill-opacity="1"><g transform="translate(101.048333, 293.572715)"><g><path d="M 49.65625 -95.109375 L 70.34375 -95.71875 L 69.15625 -8.96875 L 64.71875 -0.484375 L 11.71875 -0.125 L 3.828125 -4.671875 L 2.390625 -96.078125 L 22.96875 -96.078125 L 27.515625 -91.890625 L 28.953125 -22.84375 L 44.625 -21.78125 L 45.34375 -90.5625 Z M 49.65625 -95.109375 "/></g></g></g><g fill="#d9d9d9" fill-opacity="1"><g transform="translate(103.982621, 350.685694)"><g><path d="M 8.015625 -51.328125 L 56.46875 -50.375 L 56.46875 -32.1875 L 7.171875 -32.65625 Z M 8.015625 -51.328125 "/></g></g></g><g fill="#d9d9d9" fill-opacity="1"><g transform="translate(171.037947, 316.127631)"><g><path d="M 58.984375 -21.65625 L 60.296875 -0.234375 L 2.390625 -0.234375 L 2.390625 -95.953125 L 58.390625 -94.15625 L 57.671875 -72.265625 L 26.921875 -72.625 L 26.921875 -60.65625 L 46.78125 -59.46875 L 46.78125 -38.640625 L 26.796875 -39.84375 L 26.6875 -23.453125 Z M 58.984375 -21.65625 "/></g></g></g><g fill="#d9d9d9" fill-opacity="1"><g transform="translate(286.239713, 259.741127)"><g><path d="M 2.796875 -111.65625 L 81.4375 -111.65625 L 80.171875 -84.375 L 57.921875 -83.390625 L 54.84375 -2.375 L 25.609375 0.421875 L 26.3125 -83.53125 L 2.9375 -84.65625 Z M 2.796875 -111.65625 "/></g></g></g></svg>